<?xml version="1.0" encoding="UTF-8" standalone="no"?>
<!-- Created with Inkscape (http://www.inkscape.org/) -->

<svg
   width="339.25333mm"
   height="245mm"
   viewBox="0 0 339.25332 245"
   version="1.1"
   id="svg5"
   xml:space="preserve"
   sodipodi:docname="logo.svg"
   inkscape:version="1.2.1 (0f2f062aeb, 2022-09-21, custom)"
   xmlns:inkscape="http://www.inkscape.org/namespaces/inkscape"
   xmlns:sodipodi="http://sodipodi.sourceforge.net/DTD/sodipodi-0.dtd"
   xmlns="http://www.w3.org/2000/svg"
   xmlns:svg="http://www.w3.org/2000/svg"><sodipodi:namedview
     id="namedview9"
     pagecolor="#505050"
     bordercolor="#eeeeee"
     borderopacity="1"
     inkscape:showpageshadow="0"
     inkscape:pageopacity="0"
     inkscape:pagecheckerboard="0"
     inkscape:deskcolor="#505050"
     inkscape:document-units="mm"
     showgrid="false"
     inkscape:zoom="0.37442378"
     inkscape:cx="587.56952"
     inkscape:cy="562.1972"
     inkscape:window-width="1366"
     inkscape:window-height="704"
     inkscape:window-x="0"
     inkscape:window-y="0"
     inkscape:window-maximized="1"
     inkscape:current-layer="svg5" /><defs
     id="defs2" /><g
     id="g4190"
     transform="matrix(1,0,0,0.90425424,-3.2658775e-6,0)"><path
       id="path197"
       style="fill:#6368c9;fill-opacity:1;stroke:#6368c9;stroke-width:0.632747;stroke-opacity:1"
       d="m 302.23633,38.723838 c -1.96713,0.005 -4.19488,0.02311 -6.72517,0.04703 -17.63447,0.16667 -17.87094,0.185632 -20.06751,1.621606 -3.95616,2.58633 -4.05556,3.242284 -4.05556,26.696562 0,20.414179 0.0504,21.268316 1.32188,22.433773 1.68992,1.548957 4.25803,1.548957 5.94796,0 1.27061,-1.164763 1.32188,-2.019479 1.32188,-22.111312 v -20.8995 h 16.08326 16.08325 l 0.43925,53.711963 c 0.24166,29.54163 0.43925,66.61574 0.43925,82.3867 v 28.67474 h -16.5225 -16.52251 v -48.74225 -48.74172 l -1.44642,-1.23559 c -1.83331,-1.56553 -3.21193,-1.56004 -5.40433,0.0207 l -1.74097,1.25522 v 48.72209 48.72158 h -14.87041 -14.87041 v -59.8832 -59.883164 l -1.50276,-2.043803 c -0.82648,-1.124192 -2.50661,-2.663912 -3.7331,-3.421497 -2.17683,-1.34472 -2.63743,-1.377694 -19.34197,-1.377694 -15.846,0 -17.30533,0.0906 -19.72076,1.220081 -1.67888,0.785055 -3.08228,2.07177 -3.93878,3.610632 -1.30711,2.348296 -1.33067,3.453243 -1.33067,62.084585 v 59.69403 h -14.87041 -14.87041 v -40.66884 c 0,-29.28481 -0.2166,-41.33016 -0.77308,-43.03251 -1.06607,-3.26151 -4.95228,-6.3655 -8.59379,-6.86367 -1.57319,-0.21511 -9.70048,-0.30303 -18.06091,-0.19533 -13.87562,0.17858 -15.40077,0.30282 -17.49092,1.42833 -1.25939,0.67815 -2.83604,2.09053 -3.50367,3.13831 -1.14659,1.80118 -1.21065,4.2033 -1.16375,44.04951 l 0.0496,42.1442 H 97.603855 82.4053 l -0.183451,-29.33671 c -0.178623,-28.54958 -0.22007,-29.38148 -1.546159,-31.00896 -0.749477,-0.91977 -2.183389,-2.23432 -3.186369,-2.92127 -1.720339,-1.17825 -2.822684,-1.25808 -19.456177,-1.40612 -17.281122,-0.1537 -17.684788,-0.12899 -20.275765,1.22112 -5.057867,2.63547 -4.95477,1.91627 -4.95577,34.52554 l -10e-4,28.9264 H 17.816994 c -16.403687,0 -17.41241711,0.20738 -17.39066997,3.57704 0.0120044,1.86116 0.51808839,2.64661 2.30321857,3.57446 1.9688605,0.99402 330.2516274,1.02115 332.3104674,0.0274 1.86378,-0.89919 2.41076,-1.6903 2.42466,-3.49643 0.0212,-3.07768 -1.5136,-3.68246 -9.34516,-3.68246 h -7.16752 l -0.009,-82.84094 -0.009,-82.841456 -1.4764,-2.360062 c -2.46115,-3.934788 -3.45176,-4.553887 -17.22169,-4.519104 z M 287.91059,54.99313 v 75.4202 75.42021 h 8.26151 8.26151 v -75.42021 -75.4202 h -8.26151 z m -87.23963,37.558431 h 15.8228 c 8.70251,0 15.95659,0.204353 16.11995,0.454236 0.16337,0.249881 0.51634,26.965033 0.78445,59.366923 l 0.48731,58.91268 h -16.60726 -16.60725 v -59.36692 z m 75.02229,4.846216 c -3.46626,0 -5.55224,4.396473 -3.21117,6.767543 2.30707,2.33671 7.49773,0.50969 7.49773,-2.63911 0,-1.729234 -2.49098,-4.128433 -4.28656,-4.128433 z m -67.09151,3.634923 v 52.40042 52.40042 h 8.26151 8.26151 V 153.43312 101.0327 h -8.26151 z m -65.08182,27.36628 c 5.97555,0.0189 8.83951,0.19894 9.31778,0.56276 0.75465,0.57406 0.90899,7.61404 0.90899,41.50755 v 40.81611 h -16.52716 -16.52716 l 0.1695,-41.34476 0.17002,-41.34477 15.44867,-0.16278 c 2.71018,-0.0286 5.04751,-0.0404 7.03936,-0.0341 z m -14.88798,8.98085 v 34.22685 34.22686 h 8.59224 8.59173 v -34.22686 -34.22685 h -8.59173 z M 41.3923,154.34159 h 15.882751 c 12.129183,0 15.943003,0.17878 16.138033,0.75706 0.140454,0.41648 0.41302,13.22915 0.605648,28.47216 l 0.349849,27.71459 H 57.880699 41.3923 v -28.47165 z m 7.931298,6.66367 v 22.41414 22.41414 h 8.591724 8.591724 V 183.4194 161.00526 h -8.591724 z" /><text
       xml:space="preserve"
       style="font-style:normal;font-weight:normal;font-size:25.4px;line-height:1.25;font-family:sans-serif;white-space:pre;inline-size:144.945;display:inline;fill:#000000;fill-opacity:1;stroke:none;stroke-width:0.264583"
       x="38.70216"
       y="259.7482"
       id="text1662"
       transform="matrix(2.7392248,0,0,2.6504276,-108.59088,-418.44479)"><tspan
         x="38.70216"
         y="259.7482"
         id="tspan7120"><tspan
           style="font-weight:bold;font-family:Ubuntu;-inkscape-font-specification:Ubuntu;fill:#6368c9"
           id="tspan7118">Stock Plot</tspan></tspan></text><path
       id="path197-3"
       style="fill:#6368c9;fill-opacity:1;stroke:#6368c9;stroke-width:0.591715;stroke-opacity:1"
       d="m 269.36258,0.44152357 c -2.74673,-0.591839 -8.12425,0.67350003 -21.77998,4.01928203 -10.54459,2.583574 -20.1631,5.139748 -21.37397,5.6801444 -2.73854,1.222185 -4.08626,3.829815 -3.42923,6.63451 0.27542,1.175697 2.33524,4.131615 5.09246,7.307994 2.54645,2.933582 4.70969,5.450197 4.80731,5.591828 0.47062,0.682638 -10.50511,9.635343 -19.77266,16.12901 -13.60588,9.533332 -48.53884,29.771103 -62.96645,36.477815 -33.42578,15.538056 -78.207721,23.035233 -116.73302,19.543453 -6.914162,-0.62666 -8.79683,-0.2211 -9.34059,2.01367 -0.44922,1.84343 -0.206697,2.6943 1.132959,3.97718 1.131446,1.08353 2.858106,1.33784 13.240635,1.95048 25.392122,1.49833 54.303838,-1.2967 78.294256,-7.56862 23.92154,-6.253902 38.10457,-12.595092 71.16783,-31.820439 22.3454,-12.993258 37.01937,-22.927943 46.24598,-31.308793 l 3.69186,-3.353069 5.57338,6.372646 c 5.99051,6.84903 7.70565,7.881436 11.15577,6.715137 2.26183,-0.764603 3.2861,-2.310658 6.05728,-9.141235 1.29463,-3.191042 4.46876,-10.886486 7.05304,-17.101775 7.45467,-17.9286534 6.96385,-16.1283714 5.20586,-19.0967394 -0.97329,-1.643399 -1.67471,-2.66742403 -3.32272,-3.02247903 z" /></g></svg>
