<?xml version="1.0" encoding="UTF-8" standalone="no"?>
<!-- Created with Inkscape (http://www.inkscape.org/) -->

<svg
   width="371.311mm"
   height="277.31113mm"
   viewBox="0 0 371.311 277.31112"
   version="1.1"
   id="svg5"
   xml:space="preserve"
   inkscape:export-filename="logo1.svg"
   inkscape:export-xdpi="96"
   inkscape:export-ydpi="96"
   inkscape:version="1.2.1 (0f2f062aeb, 2022-09-21, custom)"
   sodipodi:docname="logo1.svg"
   xmlns:inkscape="http://www.inkscape.org/namespaces/inkscape"
   xmlns:sodipodi="http://sodipodi.sourceforge.net/DTD/sodipodi-0.dtd"
   xmlns="http://www.w3.org/2000/svg"
   xmlns:svg="http://www.w3.org/2000/svg"><sodipodi:namedview
     id="namedview7"
     pagecolor="#505050"
     bordercolor="#eeeeee"
     borderopacity="1"
     inkscape:showpageshadow="0"
     inkscape:pageopacity="0"
     inkscape:pagecheckerboard="0"
     inkscape:deskcolor="#505050"
     inkscape:document-units="mm"
     showgrid="false"
     showguides="true"
     inkscape:zoom="0.2400875"
     inkscape:cx="383.19363"
     inkscape:cy="610.1942"
     inkscape:window-width="1366"
     inkscape:window-height="704"
     inkscape:window-x="0"
     inkscape:window-y="0"
     inkscape:window-maximized="1"
     inkscape:current-layer="layer1"
     inkscape:lockguides="false" /><defs
     id="defs2" /><g
     inkscape:label="Layer 1"
     inkscape:groupmode="layer"
     id="layer1"
     transform="translate(-374.82136,-114.58998)"><g
       id="g356"
       transform="translate(-1.1549736)"><circle
         style="fill:#6368c9;fill-opacity:1;stroke:#6368c9;stroke-width:0.323712;stroke-opacity:1"
         id="path4475"
         cx="561.63184"
         cy="253.24554"
         r="138.49371" /><path
         style="fill:#ffffff;fill-opacity:1;stroke:#6368c9;stroke-width:0.363694;stroke-opacity:1"
         d="m 462.75333,307.58154 c -1.02607,-0.53332 -1.31687,-0.98463 -1.32377,-2.05439 -0.0125,-1.93683 0.56731,-2.0561 9.99594,-2.0561 h 8.61235 l 6.2e-4,-16.62639 c 6.7e-4,-18.74339 -0.0587,-18.33022 2.8485,-19.84505 1.48926,-0.77602 1.72134,-0.78999 11.65431,-0.70165 9.56072,0.0851 10.19415,0.13081 11.18298,0.80805 0.5765,0.39485 1.40063,1.15046 1.83142,1.67913 0.76222,0.93545 0.78606,1.41364 0.88873,17.82358 l 0.10553,16.86233 h 8.73581 8.73582 l -0.0287,-24.224 c -0.027,-22.9031 0.01,-24.2837 0.66912,-25.31899 0.38374,-0.60225 1.28996,-1.41392 2.01383,-1.80371 1.20141,-0.64693 2.07785,-0.71852 10.05338,-0.82117 4.80547,-0.0619 9.47706,-0.0112 10.3813,0.11245 2.09309,0.28634 4.32677,2.07023 4.93953,3.9449 0.31986,0.97849 0.44419,7.90214 0.44419,24.73469 v 23.37583 h 8.5473 8.54729 V 269.1598 c 0,-33.70055 0.0136,-34.33571 0.76487,-35.68548 0.4923,-0.88452 1.29914,-1.62407 2.26414,-2.07531 1.38835,-0.64921 2.22703,-0.70108 11.3351,-0.70108 9.60156,0 9.86636,0.0188 11.11758,0.79173 0.70496,0.43545 1.67045,1.3204 2.14552,1.96657 l 0.86376,1.17485 v 34.41999 34.41998 h 8.5473 8.54729 v -28.00456 -28.00457 l 1.00093,-0.72167 c 1.26016,-0.90857 2.05235,-0.91155 3.10612,-0.0117 l 0.83138,0.70995 v 28.01628 28.01627 h 9.497 9.49699 v -16.48176 c 0,-9.06495 -0.11364,-30.3746 -0.25254,-47.35475 l -0.25255,-30.87302 h -9.24445 -9.24445 v 12.01279 c 0,11.54853 -0.0294,12.0397 -0.75975,12.70919 -0.97135,0.89032 -2.44758,0.89032 -3.41892,0 -0.73084,-0.66989 -0.75976,-1.16066 -0.75976,-12.89447 0,-13.48122 0.0573,-13.85818 2.33127,-15.34477 1.26255,-0.82538 1.39827,-0.83635 11.53434,-0.93215 11.635,-0.10995 12.14767,-0.0142 13.76439,2.57056 l 0.84848,1.35655 0.006,47.61592 0.006,47.6159 h 4.11979 c 4.50148,0 5.38358,0.3476 5.37138,2.11661 -0.008,1.03813 -0.32248,1.49279 -1.39375,2.00963 -1.18403,0.57125 -189.91009,0.55568 -191.00949,-0.0158 z m 40.97591,-20.04049 c -0.11072,-8.7615 -0.26737,-16.12586 -0.3481,-16.36525 -0.1121,-0.33239 -2.30412,-0.43524 -9.27582,-0.43524 h -9.12903 v 16.36525 16.36524 h 9.47714 9.47713 z m -14.19439,-0.087 v -12.88327 h 4.93843 4.93844 v 12.88327 12.88328 h -4.93844 -4.93843 z m 60.02099,-7.44359 c 0,-19.48155 -0.0886,-23.52805 -0.52236,-23.85801 -0.36654,-0.27883 -3.17093,-0.36944 -9.40202,-0.30378 l -8.87966,0.0936 -0.0976,23.76444 -0.0976,23.76442 h 9.49962 9.49964 z m -14.43543,0.65376 V 260.9911 h 4.93843 4.93844 v 19.67312 19.67311 h -4.93844 -4.93843 z m 60.21797,-11.05525 c -0.15411,-18.62418 -0.35704,-33.97966 -0.45095,-34.12329 -0.0939,-0.14363 -4.26336,-0.26114 -9.26545,-0.26114 h -9.09469 v 34.12328 34.12328 h 9.54564 9.54565 z m -14.25253,0.60934 V 240.0993 h 4.74849 4.74851 v 30.11901 30.11902 h -4.74851 -4.74849 z m 45.58557,-13.23147 v -43.35052 h 4.74849 4.74849 v 43.35052 43.35049 h -4.74849 -4.74849 z m -8.8683,-15.08693 c -1.34561,-1.36286 -0.14642,-3.8898 1.84593,-3.8898 1.03207,0 2.4638,1.37883 2.4638,2.37277 0,1.80989 -2.98364,2.86014 -4.30973,1.51703 z m -128.45821,-8.83809 c -1.03362,-0.52955 -1.31692,-0.97783 -1.32376,-2.09467 -0.009,-1.35381 1.10001,-1.8667 5.50243,-2.54639 24.52991,-3.78714 51.24603,-14.76854 69.64124,-28.62533 7.93997,-5.98105 26.54265,-22.73888 33.53134,-30.206 4.76033,-5.08621 10.20145,-11.82882 9.80225,-12.14691 -0.0828,-0.066 -1.82109,-1.17414 -3.86283,-2.46256 -2.21074,-1.39506 -3.95294,-2.76916 -4.30727,-3.39722 -0.84531,-1.49832 -0.4116,-3.18517 1.1034,-4.2915 0.66987,-0.48917 6.26084,-3.38612 12.42439,-6.43767 12.77133,-6.32303 13.1769,-6.43653 15.47445,-4.3306 1.55622,1.42642 1.5818,0.32771 -0.27133,11.65236 -0.64242,3.92592 -1.4215,8.78327 -1.73128,10.7941 -0.66309,4.30419 -1.06045,5.33777 -2.34981,6.11213 -1.96674,1.18118 -3.19514,0.85053 -7.99015,-2.15076 l -4.46146,-2.79249 -1.77687,2.46228 c -4.44133,6.15452 -12.03262,14.00983 -23.92474,24.75684 -17.59603,15.9017 -25.44058,21.63827 -39.36211,28.78469 -13.96157,7.167 -31.52775,13.09199 -47.5706,16.04537 -6.55969,1.20759 -7.67427,1.3216 -8.54729,0.87433 z"
         id="path197" /><text
         xml:space="preserve"
         style="font-style:normal;font-weight:normal;font-size:25.4px;line-height:1.25;font-family:sans-serif;white-space:pre;inline-size:144.945;display:inline;fill:#ffffff;fill-opacity:1;stroke:none;stroke-width:0.264583"
         x="38.70216"
         y="259.7482"
         id="text1662"
         transform="matrix(1.5680064,0,0,1.5171765,398.9775,-56.086708)"><tspan
           x="38.70216"
           y="259.7482"
           id="tspan384"><tspan
             style="font-weight:bold;font-family:Ubuntu;-inkscape-font-specification:Ubuntu"
             id="tspan382">Stock Plot</tspan></tspan></text></g></g></svg>
